<?xml version="1.0" encoding="UTF-8" standalone="no"?>
<svg width="516px" height="516px" viewBox="0 0 516 516" version="1.1" xmlns="http://www.w3.org/2000/svg" xmlns:xlink="http://www.w3.org/1999/xlink" xmlns:sketch="http://www.bohemiancoding.com/sketch/ns">
    <!-- Generator: Sketch 3.0.3 (7891) - http://www.bohemiancoding.com/sketch -->
    <title>Artboard 1</title>
    <desc>Created with Sketch.</desc>
    <defs></defs>
    <g id="Page-1" stroke="none" stroke-width="1" fill="none" fill-rule="evenodd" sketch:type="MSPage">
        <g id="Artboard-1" sketch:type="MSArtboardGroup">
            <g id="12-point-Curved-Website.ai" sketch:type="MSLayerGroup" transform="translate(9.000000, 9.000000)">
                <path d="M249.305,0.011 C387.203,0.011 498.992,111.799 498.992,249.697 C498.992,387.596 387.203,499.385 249.305,499.385 C111.406,499.385 -0.382,387.596 -0.382,249.697 C-0.382,111.799 111.406,0.011 249.305,0.011 L249.305,0.011 Z" id="Stroke-1" stroke="#0A0B09" stroke-width="0.72" sketch:type="MSShapeGroup"></path>
                <path d="M249.06,5.724 C330.893,190.01 371.407,341.151 370.601,459.134" id="Stroke-3" stroke="#E0E372" sketch:type="MSShapeGroup"></path>
                <path d="M249.06,491.723 C335.893,290.437 376.407,139.295 370.601,38.312" id="Stroke-4" stroke="#8E6DA2" sketch:type="MSShapeGroup"></path>
                <path d="M249.058,5.699 C178.02,151.062 137.505,302.204 127.517,459.109" id="Stroke-5" stroke="#A8CE71" sketch:type="MSShapeGroup"></path>
                <path d="M249.058,491.698 C165.225,304.412 124.71,153.271 127.517,38.288" id="Stroke-6" stroke="#6868A0" sketch:type="MSShapeGroup"></path>
                <path d="M38.594,127.186 C244.893,148.976 396.042,189.46 492.03,248.633" id="Stroke-7" stroke="#D86D6B" sketch:type="MSShapeGroup"></path>
                <path d="M459.482,370.186 C368.148,233.83 257.514,123.172 127.588,38.222" id="Stroke-8" stroke="#72A2CB" sketch:type="MSShapeGroup"></path>
                <path d="M38.572,127.175 C127.724,259.348 238.358,370.005 370.467,459.139" id="Stroke-9" stroke="#DAA66F" sketch:type="MSShapeGroup"></path>
                <path d="M459.461,370.175 C251.87,346.502 100.72,306.02 6.024,248.728" id="Stroke-10" stroke="#84CBCA" sketch:type="MSShapeGroup"></path>
                <path d="M459.494,127.219 C332.241,297.501 221.605,408.158 127.598,459.182" id="Stroke-11" stroke="#7BBF6A" sketch:type="MSShapeGroup"></path>
                <path d="M38.604,370.218 C197.206,358.685 348.355,318.201 492.041,248.771" id="Stroke-12" stroke="#D96D9E" sketch:type="MSShapeGroup"></path>
                <path d="M459.514,127.204 C293.913,138.738 142.763,179.222 6.077,248.652" id="Stroke-13" stroke="#7FC399" sketch:type="MSShapeGroup"></path>
                <path d="M38.625,370.204 C125.959,238.849 236.594,128.19 370.52,38.241" id="Stroke-14" stroke="#B873A3" sketch:type="MSShapeGroup"></path>
                <path d="M249.017,5.723 L370.575,38.236" id="Stroke-15" stroke="#0A0B09" stroke-width="0.72" sketch:type="MSShapeGroup"></path>
                <path d="M127.516,38.277 L249.046,5.656" id="Stroke-16" stroke="#0A0B09" stroke-width="0.72" sketch:type="MSShapeGroup"></path>
                <path d="M38.571,127.221 L127.509,38.205" id="Stroke-17" stroke="#0A0B09" stroke-width="0.72" sketch:type="MSShapeGroup"></path>
                <path d="M6.018,248.722 L38.531,127.164" id="Stroke-18" stroke="#0A0B09" stroke-width="0.72" sketch:type="MSShapeGroup"></path>
                <path d="M38.572,370.223 L5.951,248.692" id="Stroke-19" stroke="#0A0B09" stroke-width="0.72" sketch:type="MSShapeGroup"></path>
                <path d="M127.517,459.168 L38.5,370.229" id="Stroke-20" stroke="#0A0B09" stroke-width="0.72" sketch:type="MSShapeGroup"></path>
                <path d="M249.016,491.724 L127.457,459.21" id="Stroke-21" stroke="#0A0B09" stroke-width="0.72" sketch:type="MSShapeGroup"></path>
                <path d="M370.517,459.169 L248.986,491.791" id="Stroke-22" stroke="#0A0B09" stroke-width="0.72" sketch:type="MSShapeGroup"></path>
                <path d="M459.462,370.225 L370.523,459.241" id="Stroke-23" stroke="#0A0B09" stroke-width="0.72" sketch:type="MSShapeGroup"></path>
                <path d="M492.016,248.724 L459.502,370.283" id="Stroke-24" stroke="#0A0B09" stroke-width="0.72" sketch:type="MSShapeGroup"></path>
                <path d="M459.46,127.224 L492.082,248.754" id="Stroke-25" stroke="#0A0B09" stroke-width="0.72" sketch:type="MSShapeGroup"></path>
                <path d="M370.516,38.279 L459.532,127.217" id="Stroke-26" stroke="#0A0B09" stroke-width="0.72" sketch:type="MSShapeGroup"></path>
                <path d="M127.493,38.113 L370.565,38.125" id="Stroke-27" stroke="#0A0B09" stroke-width="0.375" stroke-dasharray="1,1" sketch:type="MSShapeGroup"></path>
                <path d="M38.471,127.093 L248.984,5.567" id="Stroke-28" stroke="#0A0B09" stroke-width="0.375" stroke-dasharray="1,1" sketch:type="MSShapeGroup"></path>
                <path d="M249.077,5.57 L459.579,127.116" id="Stroke-29" stroke="#0A0B09" stroke-width="0.375" stroke-dasharray="1,1" sketch:type="MSShapeGroup"></path>
                <path d="M38.404,370.246 L38.417,127.174" id="Stroke-30" stroke="#0A0B09" stroke-width="0.375" stroke-dasharray="1,1" sketch:type="MSShapeGroup"></path>
                <path d="M127.385,459.269 L5.858,248.755" id="Stroke-31" stroke="#0A0B09" stroke-width="0.375" stroke-dasharray="1,1" sketch:type="MSShapeGroup"></path>
                <path d="M5.861,248.662 L127.408,38.16" id="Stroke-32" stroke="#0A0B09" stroke-width="0.375" stroke-dasharray="1,1" sketch:type="MSShapeGroup"></path>
                <path d="M370.54,459.332 L127.467,459.32" id="Stroke-33" stroke="#0A0B09" stroke-width="0.375" stroke-dasharray="1,1" sketch:type="MSShapeGroup"></path>
                <path d="M459.563,370.352 L249.048,491.878" id="Stroke-34" stroke="#0A0B09" stroke-width="0.375" stroke-dasharray="1,1" sketch:type="MSShapeGroup"></path>
                <path d="M248.955,491.875 L38.453,370.328" id="Stroke-35" stroke="#0A0B09" stroke-width="0.375" stroke-dasharray="1,1" sketch:type="MSShapeGroup"></path>
                <path d="M459.628,127.199 L459.615,370.271" id="Stroke-36" stroke="#0A0B09" stroke-width="0.375" stroke-dasharray="1,1" sketch:type="MSShapeGroup"></path>
                <path d="M370.647,38.177 L492.174,248.69" id="Stroke-37" stroke="#0A0B09" stroke-width="0.375" stroke-dasharray="1,1" sketch:type="MSShapeGroup"></path>
                <path d="M492.171,248.783 L370.624,459.285" id="Stroke-38" stroke="#0A0B09" stroke-width="0.375" stroke-dasharray="1,1" sketch:type="MSShapeGroup"></path>
            </g>
        </g>
    </g>
</svg>